<svg xmlns="http://www.w3.org/2000/svg" version="1.1" xmlns:xlink="http://www.w3.org/1999/xlink" width="512" height="512" x="0" y="0" viewBox="0 0 512 512" style="enable-background:new 0 0 512 512" xml:space="preserve" class=""><g><path d="M284.28 405.29c-1.08 6.09-6.6 11.61-12.69 12.69-3.69.61-8.72 1.19-15.59 1.2-6.86 0-11.89-.58-15.59-1.2-6.09-1.08-11.61-6.6-12.69-12.69-.61-3.69-1.19-8.72-1.2-15.59 0-6.86.58-11.89 1.2-15.59 1.08-6.09 6.6-11.61 12.69-12.69 3.69-.61 8.72-1.19 15.59-1.2 6.86 0 11.89.58 15.59 1.2 6.09 1.08 11.61 6.6 12.69 12.69.61 3.69 1.19 8.72 1.2 15.59 0 6.86-.58 11.89-1.2 15.59z" fill="#ffffff" opacity="1" data-original="#000000" class=""></path><path d="M256 38c29.45 0 57.99 5.76 84.84 17.12 25.95 10.98 49.27 26.7 69.31 46.73s35.76 43.35 46.73 69.31C468.24 198.01 474 226.56 474 256s-5.76 57.99-17.12 84.84c-10.98 25.95-26.7 49.27-46.73 69.31-20.03 20.03-43.35 35.76-69.31 46.73C313.99 468.24 285.44 474 256 474s-57.99-5.76-84.84-17.12c-25.95-10.98-49.27-26.7-69.31-46.73-20.03-20.03-35.76-43.35-46.73-69.31C43.76 313.99 38 285.44 38 256s5.76-57.99 17.12-84.84c10.98-25.95 26.7-49.27 46.73-69.31s43.35-35.76 69.31-46.73C198.01 43.76 226.56 38 256 38m0-38C114.62 0 0 114.61 0 256s114.62 256 256 256 256-114.62 256-256S397.38 0 256 0z" fill="#ffffff" opacity="1" data-original="#000000" class=""></path><path d="M253.54 330.32c-9.35 0-17.5-6.9-18.8-16.42-.21-1.5-1.9-15.14 1.97-31.6 5.48-23.36 19.27-41.12 39.87-51.37 17.14-8.52 29.6-18.6 37.05-29.95 6.24-9.51 7.17-17.28 7.17-21.06 0-1.42-.27-14.26-9.56-25.79-9.99-12.4-27-18.69-50.56-18.69-22.11 0-39.49 8.48-51.67 25.2-9.19 12.62-12.17 25.56-12.2 25.68-2.13 10.28-12.19 16.88-22.46 14.75-10.28-2.13-16.88-12.19-14.75-22.46.44-2.1 4.66-21.08 18.69-40.34 13.56-18.62 38.87-40.83 82.39-40.83 77.62 0 98.12 53.96 98.12 82.48 0 9.8-2.32 25.03-13.4 41.9-11.19 17.06-28.65 31.57-51.9 43.13-25.09 12.47-21.15 43.47-21.11 43.78 1.42 10.4-5.85 19.98-16.25 21.4-.88.12-1.74.18-2.6.18z" fill="#ffffff" opacity="1" data-original="#000000" class=""></path></g></svg>