<?xml version="1.0" encoding="UTF-8"?>
<svg id="Ebene_2" data-name="Ebene 2" xmlns="http://www.w3.org/2000/svg" viewBox="0 0 1820.87 214.45">
  <defs>
    <style>
      .cls-1 {
        fill: #000;
      }

      .cls-2 {
        fill: #57bbc2;
      }
    </style>
  </defs>
  <g id="Ebene_1-2" data-name="Ebene 1">
    <g>
      <path class="cls-1" d="M0,172.27V3.52h21.97l169.52,142.71h.22V3.52h21.09v168.75h-21.97L21.31,28.34h-.22v143.92H0Z"/>
      <path class="cls-1" d="M392.87,134.69c0,9.45-1.41,16.88-4.23,22.3-2.82,5.42-7.12,9.38-12.91,11.87-5.79,2.49-13.17,4.08-22.14,4.78-8.97.7-19.65,1.04-32.03,1.04-14.14,0-26.13-.71-35.98-2.14-9.85-1.43-17.8-4.36-23.84-8.79-6.04-4.43-10.44-11.08-13.18-19.94-2.75-8.86-4.12-20.69-4.12-35.49s1.34-25.85,4.01-34.5c2.67-8.64,7.01-15.16,13.02-19.56,6-4.39,13.9-7.32,23.68-8.79,9.78-1.46,21.73-2.2,35.87-2.2,16.19,0,29.59,1.14,40.21,3.41,10.62,2.27,18.55,6.59,23.79,12.96,5.24,6.37,7.85,15.71,7.85,28.02v27.14h-127.22c.07,9.38.73,16.88,1.98,22.52,1.24,5.64,3.74,9.89,7.47,12.74s9.32,4.74,16.75,5.66c7.43.92,17.34,1.37,29.72,1.37,11.13,0,20.12-.22,26.97-.66,6.85-.44,12.05-1.41,15.6-2.91,3.55-1.5,5.95-3.75,7.2-6.76,1.24-3,1.87-7.03,1.87-12.08h19.67ZM321.02,60.86c-11.94,0-21.55.44-28.84,1.32-7.29.88-12.84,2.58-16.64,5.11-3.81,2.53-6.39,6.28-7.75,11.26-1.36,4.98-2.07,11.54-2.14,19.67h107.01v-10.55c0-5.27-.6-9.65-1.81-13.13-1.21-3.48-3.57-6.22-7.09-8.24-3.52-2.01-8.7-3.42-15.55-4.23-6.85-.81-15.91-1.21-27.19-1.21Z"/>
      <path class="cls-1" d="M485.16,174.68c-16.55,0-29.59-1.81-39.11-5.44-9.52-3.62-16.3-9.7-20.32-18.24-4.03-8.53-6.04-20.2-6.04-34.99V45.7h21.2v70.31c0,8.35.68,15.22,2.03,20.6,1.35,5.38,3.75,9.56,7.2,12.52,3.44,2.97,8.29,5.04,14.56,6.21,6.26,1.17,14.34,1.76,24.22,1.76,14.65,0,26.15-1.21,34.5-3.63s14.26-6.21,17.74-11.37c3.48-5.16,5.22-11.88,5.22-20.16V45.7h21.09v126.56h-21.09v-16.81c-3.08,4.25-6.96,7.8-11.65,10.66-4.69,2.86-10.95,5-18.79,6.43-7.84,1.43-18.09,2.14-30.76,2.14Z"/>
      <path class="cls-1" d="M598.21,172.27V45.7h21.09v17.47c2.34-3.74,4.71-6.85,7.09-9.34,2.38-2.49,5.49-4.47,9.34-5.93,3.84-1.46,9.06-2.51,15.66-3.13,6.59-.62,15.27-.93,26.04-.93v17.69c-14.5,0-25.73.51-33.67,1.54-7.95,1.03-13.64,2.77-17.08,5.22-3.44,2.45-5.53,5.84-6.26,10.16-.73,4.32-1.1,9.82-1.1,16.48v77.34h-21.09Z"/>
      <path class="cls-1" d="M778.27,174.68c-14.14,0-26.15-.71-36.04-2.14-9.89-1.43-17.87-4.36-23.95-8.79-6.08-4.43-10.51-11.08-13.29-19.94-2.78-8.86-4.17-20.69-4.17-35.49s1.39-25.85,4.17-34.5c2.78-8.64,7.21-15.16,13.29-19.56,6.08-4.39,14.06-7.32,23.95-8.79,9.89-1.46,21.9-2.2,36.04-2.2s26.24.73,36.09,2.2c9.85,1.47,17.81,4.39,23.9,8.79,6.08,4.39,10.51,10.91,13.29,19.56,2.78,8.64,4.17,20.14,4.17,34.5s-1.39,26.62-4.17,35.49c-2.78,8.86-7.21,15.51-13.29,19.94-6.08,4.43-14.05,7.36-23.9,8.79-9.85,1.43-21.88,2.14-36.09,2.14ZM834.63,108.33c0-10.47-.53-18.86-1.59-25.16-1.06-6.3-3.39-11.04-6.98-14.23-3.59-3.19-9.17-5.33-16.75-6.43-7.58-1.1-17.93-1.65-31.04-1.65s-23.36.55-30.98,1.65c-7.62,1.1-13.22,3.24-16.81,6.43-3.59,3.19-5.92,7.93-6.98,14.23-1.06,6.3-1.59,14.69-1.59,25.16s.53,19.52,1.59,26.04c1.06,6.52,3.39,11.41,6.98,14.67,3.59,3.26,9.19,5.42,16.81,6.48,7.62,1.06,17.94,1.59,30.98,1.59s23.46-.53,31.04-1.59c7.58-1.06,13.16-3.22,16.75-6.48,3.59-3.26,5.91-8.15,6.98-14.67,1.06-6.52,1.59-15.2,1.59-26.04Z"/>
      <path class="cls-1" d="M880.77,172.27V45.7h21.09v16.81c3.15-4.25,7.05-7.8,11.7-10.66,4.65-2.86,10.88-5,18.68-6.43,7.8-1.43,18.04-2.14,30.71-2.14,16.55,0,29.61,1.61,39.17,4.83,9.56,3.22,16.35,8.97,20.38,17.25,4.03,8.28,6.04,20,6.04,35.16v71.74h-21.2v-71.74c0-8.64-.73-15.6-2.2-20.87-1.47-5.27-3.97-9.26-7.53-11.98-3.55-2.71-8.44-4.52-14.67-5.44-6.23-.91-14.14-1.37-23.73-1.37-14.65,0-26.15,1.21-34.5,3.63s-14.25,6.21-17.69,11.37c-3.44,5.16-5.16,11.88-5.16,20.16v76.25h-21.09Z"/>
      <path class="cls-1" d="M1123.02,174.68c-15.16,0-27.67-.79-37.52-2.36-9.85-1.57-17.18-5.04-21.97-10.38-4.8-5.35-7.2-13.66-7.2-24.94s2.25-19.94,6.76-25.32c4.5-5.38,11.65-8.88,21.42-10.49,9.78-1.61,22.61-2.42,38.51-2.42,12.89,0,23.69.29,32.41.88,8.71.59,16.51,1.61,23.4,3.08-.15-9.74-.81-17.41-1.98-23.02-1.17-5.6-3.37-9.76-6.59-12.47-3.22-2.71-7.93-4.45-14.12-5.22-6.19-.77-14.41-1.15-24.67-1.15-11.72,0-20.89.26-27.52.77-6.63.51-11.44,1.43-14.45,2.75-3,1.32-4.89,3.22-5.66,5.71-.77,2.49-1.15,5.71-1.15,9.67h-21.09c0-7.91,1.08-14.28,3.24-19.12,2.16-4.83,5.84-8.5,11.04-10.99,5.2-2.49,12.32-4.17,21.37-5.05,9.04-.88,20.45-1.32,34.22-1.32,14.79,0,26.71.95,35.76,2.86,9.04,1.91,15.93,5.33,20.65,10.27,4.72,4.94,7.91,11.85,9.56,20.71,1.65,8.86,2.47,20.29,2.47,34.28v60.86h-21.09v-8.68c-2.49,2.64-5.93,4.76-10.33,6.37-4.39,1.61-10.24,2.8-17.52,3.57-7.29.77-16.61,1.15-27.96,1.15ZM1123.02,157.54c12.52,0,22.52-.15,29.99-.44,7.47-.29,13.06-1.1,16.75-2.42,3.7-1.32,6.13-3.44,7.31-6.37,1.17-2.93,1.76-7.03,1.76-12.3v-19.45l-55.81-.66c-9.89-.15-17.85-.02-23.9.38-6.04.4-10.64,1.28-13.79,2.64-3.15,1.36-5.26,3.48-6.32,6.37-1.06,2.89-1.59,6.79-1.59,11.7s.53,8.53,1.59,11.32c1.06,2.78,3.17,4.83,6.32,6.15,3.15,1.32,7.75,2.16,13.79,2.53,6.04.37,14.01.55,23.9.55Z"/>
      <path class="cls-1" d="M1228.05,214.45V45.7h21.09v14.39c5.35-7.1,12.69-11.68,22.03-13.73,9.34-2.05,20.78-3.08,34.33-3.08s26.24.73,36.09,2.2c9.85,1.47,17.81,4.39,23.9,8.79,6.08,4.39,10.51,10.91,13.29,19.56,2.78,8.64,4.17,20.14,4.17,34.5s-1.39,26.62-4.17,35.49c-2.78,8.86-7.21,15.51-13.29,19.94-6.08,4.43-14.05,7.36-23.9,8.79-9.85,1.43-21.88,2.14-36.09,2.14s-24.99-1.03-34.33-3.08c-9.34-2.05-16.68-6.66-22.03-13.84v56.69h-21.09ZM1361.86,108.33c0-10.47-.53-18.86-1.59-25.16-1.06-6.3-3.39-11.04-6.98-14.23-3.59-3.19-9.17-5.33-16.75-6.43-7.58-1.1-17.93-1.65-31.04-1.65-11.94,0-21.61.55-29,1.65-7.4,1.1-13.07,3.24-17.03,6.43-3.96,3.19-6.67,7.93-8.13,14.23-1.47,6.3-2.2,14.69-2.2,25.16s.73,19.52,2.2,26.04c1.46,6.52,4.17,11.41,8.13,14.67,3.96,3.26,9.63,5.42,17.03,6.48,7.4,1.06,17.07,1.59,29,1.59,13.11,0,23.46-.53,31.04-1.59,7.58-1.06,13.16-3.22,16.75-6.48,3.59-3.26,5.91-8.15,6.98-14.67,1.06-6.52,1.59-15.2,1.59-26.04Z"/>
      <path class="cls-1" d="M1466.13,172.27c-12.89,0-23.22-1.3-30.98-3.9-7.76-2.6-13.39-7.21-16.86-13.84-3.48-6.63-5.22-15.95-5.22-27.96V11.1h21.09v34.61h77.89v17.36h-77.89v63.5c0,8.2.75,14.32,2.25,18.35,1.5,4.03,4.54,6.67,9.12,7.91,4.58,1.25,11.44,1.87,20.6,1.87,8.13,0,14.52-.26,19.17-.77,4.65-.51,8.07-1.88,10.27-4.12,2.2-2.23,3.59-5.91,4.18-11.04.58-5.13.88-12.34.88-21.64h18.68c0,12.16-.75,21.9-2.25,29.22-1.5,7.32-4.17,12.85-8.02,16.59-3.85,3.74-9.23,6.23-16.15,7.47-6.92,1.25-15.84,1.87-26.75,1.87Z"/>
      <path class="cls-1" d="M1550.06,172.27V52.73h21.09v119.53h-21.09Z"/>
      <path class="cls-1" d="M1680.91,175.78c-16.48,0-30.03-1.12-40.65-3.35-10.62-2.23-18.92-6.35-24.88-12.36-5.97-6-10.14-14.65-12.52-25.93-2.38-11.28-3.57-25.96-3.57-44.06v-4.39c0-14.94.73-27.48,2.2-37.63,1.46-10.14,3.99-18.4,7.58-24.77,3.59-6.37,8.48-11.24,14.67-14.61,6.19-3.37,13.97-5.66,23.35-6.87,9.37-1.21,20.65-1.81,33.84-1.81h44.27c13.18,0,24.46.6,33.84,1.81,9.37,1.21,17.16,3.5,23.35,6.87,6.19,3.37,11.08,8.24,14.67,14.61,3.59,6.37,6.11,14.63,7.58,24.77,1.46,10.15,2.2,22.69,2.2,37.63v4.39c0,17.8-1.12,32.25-3.35,43.34-2.23,11.1-6.25,19.76-12.03,25.98l29.44,23.07-10.66,13.07-33.62-26.26c-6.08,2.49-13.35,4.19-21.81,5.11-8.46.91-18.33,1.37-29.61,1.37h-44.27ZM1680.91,157.54h44.27c7.1,0,13.44-.15,19.01-.44,5.56-.29,10.47-.88,14.72-1.76l-52.07-40.76,10.66-13.07,57.9,45.37c4.17-4.61,6.94-11.39,8.29-20.32,1.35-8.94,2.03-21.09,2.03-36.48v-4.39c0-12.89-.44-23.51-1.32-31.86s-2.51-14.94-4.89-19.78c-2.38-4.83-5.82-8.37-10.33-10.6-4.5-2.23-10.35-3.66-17.52-4.29-7.18-.62-16-.93-26.48-.93h-44.27c-10.48,0-19.3.31-26.48.93-7.18.62-13.02,2.05-17.52,4.29-4.5,2.23-7.95,5.77-10.33,10.6-2.38,4.83-4.01,11.43-4.89,19.78s-1.32,18.97-1.32,31.86v4.39c0,12.45.44,22.78,1.32,30.98.88,8.2,2.51,14.76,4.89,19.67,2.38,4.91,5.82,8.57,10.33,10.99,4.5,2.42,10.34,3.99,17.52,4.72,7.18.73,16,1.1,26.48,1.1Z"/>
    </g>
    <rect class="cls-2" x="1550.06" y="3.52" width="21.09" height="21.09"/>
  </g>
</svg>