<svg xmlns="http://www.w3.org/2000/svg" version="1.1" xmlns:xlink="http://www.w3.org/1999/xlink" width="512" height="512" x="0" y="0" viewBox="0 0 512 512" style="enable-background:new 0 0 512 512" xml:space="preserve"><g><path d="M256 0C114.841 0 0 114.841 0 256s114.841 256 256 256 256-114.841 256-256S397.159 0 256 0zm0 480C132.486 480 32 379.514 32 256S132.486 32 256 32s224 100.486 224 224-100.486 224-224 224zm134.856-146c-27.973 48.445-78.385 77.368-134.852 77.369-56.469.001-106.884-28.922-134.859-77.369-4.419-7.652-1.798-17.438 5.854-21.856 7.654-4.419 17.439-1.797 21.856 5.854 22.191 38.429 62.247 61.372 107.148 61.371 44.899-.001 84.952-22.943 107.141-61.371 4.418-7.653 14.204-10.274 21.856-5.855 7.653 4.419 10.274 14.204 5.856 21.857zM118.678 192.943c0-17.652 14.361-32.014 32.014-32.014s32.014 14.361 32.014 32.014-14.361 32.014-32.014 32.014-32.014-14.361-32.014-32.014zm274.645 0c0 17.652-14.361 32.014-32.014 32.014s-32.014-14.361-32.014-32.014 14.361-32.014 32.014-32.014c17.652.001 32.014 14.362 32.014 32.014z" fill="#ffffff" opacity="1" data-original="#000000"></path></g></svg>